/* XPM */
static char *result[] = {
/* columns rows colors chars-per-pixel */
"64 64 29 1 ",
"  c #272E33",
". c #313940",
"X c #3A454D",
"o c #3B454D",
"O c #445159",
"+ c #4E5C66",
"@ c #586773",
"# c #586873",
"$ c #617280",
"% c #617380",
"& c #6A7E8C",
"* c #6B7E8C",
"= c #6B7F8C",
"- c #748999",
"; c #758999",
": c #748A99",
"> c #758A99",
", c #7E94A6",
"< c #7E95A6",
"1 c #7F95A6",
"2 c #88A0B2",
"3 c #88A0B3",
"4 c #91ACBF",
"5 c #9BB7CC",
"6 c #A5C2D9",
"7 c #A5C3D9",
"8 c #AFCEE5",
"9 c #B8DAF2",
"0 c #C2E5FF",
/* pixels */
"0000000000000000000000000000000000000000000000000000000000000000",
"0000000000000000000000000000000000000000000000000000000000000000",
"0000000000000000000000000000000000000000000000000000000000000000",
"0000000000000000000000000000000000000000000000000000000000000000",
"0000000000000000000000000000000000000000000000000000000000000000",
"0000000000000000000000000000000000000000000000000000000000000000",
"0000000000000000000000000000000000000000000000000000000000000000",
"0000000000000000000000000000000000000000000000000000000000000000",
"0000000000000000000000000000000000000000000000000000000000000000",
"0000000000000000000000000000000000000000000000000000000000000000",
"0000000000000000000000000000000000000000000000000000000000000000",
"0000000000000000000000000000000000000000000000000000000000000000",
"0000000000000000000000000000000000000000000000000000000000000000",
"0000000000000000000000000000000000000000000000000000000000000000",
"0000000000000000000000000000000%*0000000000000000000000000000000",
"0000000000000000000000000000000 X0000000000000000000000000000000",
"0000000000000000000008333333333 .3333333336000000000000000000000",
"0000000000000000000003                    ;000000000000000000000",
"0000000000000000000008333333333 .3333333336000000000000000000000",
"0000000000000000000000000000000 X0000000000000000000000000000000",
"000000000000000000000005%%%%%%% .%%%%%%%300000000000000000000000",
"000000000000000000000003 o+++++  +++++O %00000000000000000000000",
"000000000000000000000003 300000 X000005 %00000000000000000000000",
"000000000000000000000003 300000 X000005 %00000000000000000000000",
"000000000000000000000003                %00000000000000000000000",
"000000000000000000000003 %33333 .33333* %00000000000000000000000",
"000000000000000000000003 300000 X000005 %00000000000000000000000",
"000000000000000000000003 ;55555 X55555< %00000000000000000000000",
"000000000000000000000003                %00000000000000000000000",
"00000000000000000000000988887X    #88888900000000000000000000000",
"0000000000000000000000000008O - X- O8000000000000000000000000000",
"000000000000000000000000005. <0 X0- X300000000000000000000000000",
"0000000000000000000000008@ .500 X003. %8000000000000000000000000",
"00000000000000000000009>. +8000 X0008o  %80000000000000000000000",
"000000000000000000000%  .<00000 X000003o  *000000000000000000000",
"0000000000000000000006o-9000000 X0000008-o5000000000000000000000",
"0000000000000000000000000000000340000000000000000000000000000000",
"0000000000000000000000000000000000000000000000000000000000000000",
"0000000000000000009%%%%%%000000000000000000000000000000000000000",
"0000000000000000008 <3333000000000000000008 00000000000000000000",
"0000000000000000008 80000000975000009770095 89000000000000000000",
"0000000000000000008 80000005.oOX7001.Oo*04o o*000000000000000000",
"0000000000000000008 5888900$-00&+09 709+708 00000000000000000000",
"0000000000000000008     +000000:X09.1000008 00000000000000000000",
"0000000000000000008 80000005@o oX002o.@3008 00000000000000000000",
"0000000000000000008 8000008 &803X00006,.308 00000000000000000000",
"0000000000000000008 8000007 000&X081000#;08 00000000000000000000",
"0000000000000000008 @%%%%99o%3=oX09o%3=.809.%4000000000000000000",
"0000000000000000009;;;;;;908*%-61008*%*60008*3000000000000000000",
"0000000000000000000000000000000000000000000000000000000000000000",
"0000000000000000000000000000000000000000000000000000000000000000",
"0000000000000000000000000000000000000000000000000000000000000000",
"0000000000000000000000000000000000000000000000000000000000000000",
"0000000000000000000000000000000000000000000000000000000000000000",
"0000000000000000000000000000000000000000000000000000000000000000",
"0000000000000000000000000000000000000000000000000000000000000000",
"0000000000000000000000000000000000000000000000000000000000000000",
"0000000000000000000000000000000000000000000000000000000000000000",
"0000000000000000000000000000000000000000000000000000000000000000",
"0000000000000000000000000000000000000000000000000000000000000000",
"0000000000000000000000000000000000000000000000000000000000000000",
"0000000000000000000000000000000000000000000000000000000000000000",
"0000000000000000000000000000000000000000000000000000000000000000",
"0000000000000000000000000000000000000000000000000000000000000000"
};
