/* XPM */
static char *f9f2ca235ae446d9eba9c20c5de2ae91DXJ0G0c7Tb2YdzLO[] = {
/* columns rows colors chars-per-pixel */
"64 64 26 1 ",
"  c black",
". c #100F0C",
"X c #201D17",
"o c #201E18",
"O c #302C23",
"+ c #302C24",
"@ c #403B2F",
"# c #403B30",
"$ c #504A3B",
"% c #504A3C",
"& c #605947",
"* c #706752",
"= c #706853",
"- c #7F765F",
"; c #80765F",
": c #8F846A",
"> c #90856B",
", c #9F9376",
"< c #A09377",
"1 c #AFA282",
"2 c #B0A282",
"3 c #BFB18E",
"4 c #CFC09A",
"5 c #DFCFA6",
"6 c #EFDEB1",
"7 c #FFECBD",
/* pixels */
"7777777777777777777777777777777777777777777777777777777777777777",
"7777777777777777777777777777777777777777777777777777777777777777",
"7777777777777777777777777777777777777777777777777777777777777777",
"7777777777777777777777777777777777777777777777777777777777777777",
"7777777777777777777777777777777777777777777777777777777777777777",
"7777777777777777777777777777777777777777777777777777777777777777",
"7777777777777777777777777777777777777777777777777777777777777777",
"7777777777777777777777777777777777777777777777777777777777777777",
"7777777777777777777777777777777777777777777777777777777777777777",
"7777777777777777777777777777777777777777777777777777777777777777",
"7777777777777777777777777777777777777777777777777777777777777777",
"7777777777777777777777777777777777777777777777777777777777777777",
"7777777777777777777777777777777777777777777777777777777777777777",
"7777777777777777777777777777777777777777777777777777777777777777",
"7777777777777777777777777774@;777<@17777777777777777777777777777",
"7777777777777777777777777773 &777; <7777777777777777777777777777",
"7777777777777777777777777773 &777; <7777777777777777777777777777",
"7777777777777777777777777773 &777; <7777777777777777777777777777",
"7777777777777777777777777773 &777; <77773@6777777777777777777777",
"7777777777777777777776555551 &777; <777>  :777777777777777777777",
"777777777777777777777;       &777; <75@ .:7777777777777777777777",
"777777777777777777777,#####+ &777; <>. #577777777777777777777777",
"7777777777777777777777777773 &777; o .:7777777777777777777777777",
"7777777777777777777777777773 &777;  -677777777777777777777777777",
"7777777777777777777777777773 &777; <7777777777777777777777777777",
"7777777777777777777777777773 &777; <7777777777777777777777777777",
"7777777777777777777777777773 &777; <7777777777777777777777777777",
"7777777777777777777777777773 &777; <7777777777777777777777777777",
"777777777777777777777777776* &777; <7777767777777777777777777777",
"7777777777777777777777773$.  &777; <77777,o377777777777777777777",
"7777777777777777777774;.  #& &777; <77777> 177777777777777777777",
"777777777777777777776. .%373 &777; <77777; 377777777777777777777",
"777777777777777777777:-67773 &777, >77777$ 677777777777777777777",
"7777777777777777777777777773 &777, O,,,,> o777777777777777777777",
"7777777777777777777777777773 &7776o       ,777777777777777777777",
"7777777777777777777777777774#:777763,,,,,47777777777777777777777",
"7777777777777777777777777777777777777777777777777777777777777777",
"7777777777777777777777777777777777777777777777777777777777777777",
"7777777777777777777777777777777777777777777777777777777777777777",
"7777777777777756777775777777777777777777777577777777777777777777",
"77777777777777@o67777o377777777777777713775 77777777777777777777",
"77777777777777@ =7777o3777777777777777&;775 77777777777777777777",
"77777777777777@&.3777o3774&@&577,<>@4;o+&65 5&@;6777777777777777",
"77777777777777@;:o677o375.-,&o57&.&,53@$,65 @,:o;777777777777777",
"77777777777777@;7@$77o37@&777&*7&#7777&;775 4772.777777777777777",
"77777777777777@;75.>7o37 37772o7&&7777&;775 7773 777777777777777",
"77777777777777@;771.5o37 57773o7&&7777&;775 7773 777777777777777",
"77777777777777@;777*@o37o<777>#7&&7777&;775 7773 777777777777777",
"77777777777777@;7776o 37:o575o,7&&7777*@775 7773 777777777777777",
"77777777777777@;77773 377- X.:77&&77775o 35 7773 777777777777777",
"7777777777777777777777777765677777777777577777777777777777777777",
"7777777777777777777777777777777777777777777777777777777777777777",
"7777777777777777777777777777777777777777777777777777777777777777",
"7777777777777777777777777777777777777777777777777777777777777777",
"7777777777777777777777777777777777777777777777777777777777777777",
"7777777777777777777777777777777777777777777777777777777777777777",
"7777777777777777777777777777777777777777777777777777777777777777",
"7777777777777777777777777777777777777777777777777777777777777777",
"7777777777777777777777777777777777777777777777777777777777777777",
"7777777777777777777777777777777777777777777777777777777777777777",
"7777777777777777777777777777777777777777777777777777777777777777",
"7777777777777777777777777777777777777777777777777777777777777777",
"7777777777777777777777777777777777777777777777777777777777777777",
"7777777777777777777777777777777777777777777777777777777777777777"
};
