/* XPM */
static char *result[] = {
/* columns rows colors chars-per-pixel */
"65 64 37 1 ",
"  c #29312A",
". c #333D35",
"X c #343D35",
"o c #343E35",
"O c #3E493F",
"+ c #3E4A3F",
"@ c #3D4A40",
"# c #48554A",
"$ c #48564A",
"% c #526254",
"& c #526255",
"* c #5C6E5F",
"= c #5D6E5F",
"- c #677A69",
"; c #667A6A",
": c #677A6A",
"> c #718674",
", c #7B927E",
"< c #7B927F",
"1 c #859E89",
"2 c #859F89",
"3 c #8FAB94",
"4 c #99B79E",
"5 c #99B79F",
"6 c #9AB79E",
"7 c #A4C3A9",
"8 c #A4C4A9",
"9 c #AECFB3",
"0 c #AFCFB3",
"q c #AFD0B3",
"w c #B9DBBE",
"e c #B8DCBE",
"r c #B9DCBE",
"t c #C3E7C9",
"y c #C3E8C8",
"u c #C3E8C9",
"i c #CDF4D3",
/* pixels */
"iiiiiiiiiiiiiiiiiiiiiiiiiiiiiiiiiiiiiiiiiiiiiiiiiiiiiiiiiiiiiiiii",
"iiiiiiiiiiiiiiiiiiiiiiiiiiiiiiiiiiiiiiiiiiiiiiiiiiiiiiiiiiiiiiiii",
"iiiiiiiiiiiiiiiiiiiiiiiiiiiiiiiiiiiiiiiiiiiiiiiiiiiiiiiiiiiiiiiii",
"iiiiiiiiiiiiiiiiiiiiiiiiiiiiiiiiiiiiiiiiiiiiiiiiiiiiiiiiiiiiiiiii",
"iiiiiiiiiiiiiiiiiiiiiiiiiiiiiiiiiiiiiiiiiiiiiiiiiiiiiiiiiiiiiiiii",
"iiiiiiiiiiiiiiiiiiiiiiiiiiiiiiiiiiiiiiiiiiiiiiiiiiiiiiiiiiiiiiiii",
"iiiiiiiiiiiiiiiiiiiiiiiiiiiiiiiiiiiiiiiiiiiiiiiiiiiiiiiiiiiiiiiii",
"iiiiiiiiiiiiiiiiiiiiiiiiiiiiiiiiiiiiiiiiiiiiiiiiiiiiiiiiiiiiiiiii",
"iiiiiiiiiiiiiiiiiiiiiiiiiiiiiiiiiiiiiiiiiiiiiiiiiiiiiiiiiiiiiiiii",
"iiiiiiiiiiiiiiiiiiiiiiiiiiiiiiiiiiiiiiiiiiiiiiiiiiiiiiiiiiiiiiiii",
"iiiiiiiiiiiiiiiiiiiiiiiiiiiiiiiiiiiiiiiiiiiiiiiiiiiiiiiiiiiiiiiii",
"iiiiiiiiiiiiiiiiiiiiiiiiiiiiiiiiiiiiiiiiiiiiiiiiiiiiiiiiiiiiiiiii",
"iiiiiiiiiiiiiiiiiiiiiiiiiiiiiiiiiiiiiiiiiiiiiiiiiiiiiiiiiiiiiiiii",
"iiiiiiiiiiiiiiiiiiiiiiiiiiiiiiiiiiiiiiiiiiiiiiiiiiiiiiiiiiiiiiiii",
"iiiiiiiiiiiiiiiiiiiiiiiiiiiiiii4-4iiiiiiiiiiiiiiiiiiiiiiiiiiiiiii",
"iiiiiiiiiiiiiiiiiiiiiiiiiiiiiii< <iiiiiiiiiiiiiiiiiiiiiiiiiiiiiii",
"iiiiiiiiiiiiiiiiiiiiii777777777- -777777777uiiiiiiiiiiiiiiiiiiiii",
"iiiiiiiiiiiiiiiiiiiiii                     wiiiiiiiiiiiiiiiiiiiii",
"iiiiiiiiiiiiiiiiiiiiii<<<<<<<<<% %<<<<<<<<<uiiiiiiiiiiiiiiiiiiiii",
"iiiiiiiiiiiiiiiiiiiiiiiiiiiiiii< <iiiiiiiiiiiiiiiiiiiiiiiiiiiiiii",
"iiiiiiiiiiiiiiiiiiiiiiiiiiiiiii< <iiiiiiiiiiiiiiiiiiiiiiiiiiiiiii",
"iiiiiiiiiiiiiiiiiiiiiii%                 &iiiiiiiiiiiiiiiiiiiiiii",
"iiiiiiiiiiiiiiiiiiiiiii% ::::::::::::::: &iiiiiiiiiiiiiiiiiiiiiii",
"iiiiiiiiiiiiiiiiiiiiiii% iii,$uiiii$-iii &iiiiiiiiiiiiiiiiiiiiiii",
"iiiiiiiiiiiiiiiiiiiiiii% iii7 <iii7 3iii &iiiiiiiiiiiiiiiiiiiiiii",
"iiiiiiiiiiiiiiiiiiiiiii% iiii%+iii%+iiii &iiiiiiiiiiiiiiiiiiiiiii",
"iiiiiiiiiiiiiiiiiiiiiii% iy--#*--= #--ri &iiiiiiiiiiiiiiiiiiiiiii",
"iiiiiiiiiiiiiiiiiiiiiii% ie@@@@o @@@@@7i &iiiiiiiiiiiiiiiiiiiiiii",
"iiiiiiiiiiiiiiiiiiiiiii% iiiiii3 7iiiiii &iiiiiiiiiiiiiiiiiiiiiii",
"iiiiiiiiiiiiiiiiiiiiiii% iiiiii3 7iiiiii &iiiiiiiiiiiiiiiiiiiiiii",
"iiiiiiiiiiiiiiiiiiiiiii% i2%%%%O #%%%%>i &iiiiiiiiiiiiiiiiiiiiiii",
"iiiiiiiiiiiiiiiiiiiiiii% i<&&&&$ $&&&&>i &iiiiiiiiiiiiiiiiiiiiiii",
"iiiiiiiiiiiiiiiiiiiiiii% iiiiii3 7iiiiii &iiiiiiiiiiiiiiiiiiiiiii",
"iiiiiiiiiiiiiiiiiiiiiii% iiiiii3 7iiiiii &iiiiiiiiiiiiiiiiiiiiiii",
"iiiiiiiiiiiiiiiiiiiiiii% iiiiii3 7iiwww0 &iiiiiiiiiiiiiiiiiiiiiii",
"iiiiiiiiiiiiiiiiiiiiiii% iiiiii3 7ii:    >iiiiiiiiiiiiiiiiiiiiiii",
"iiiiiiiiiiiiiiiiiiiiiii83iiiiiiiiiiir3330iiiiiiiiiiiiiiiiiiiiiiii",
"iiiiiiiiiiiiiiiiiiiiiiiiiiiiiiiiiiiiiiiiiiiiiiiiiiiiiiiiiiiiiiiii",
"iiiiiiiiiiiiii7-uiiii41iiiiiiiiiiiiiiiiiiiii34iiiiiiiiiiiiiiiiiii",
"iiiiiiiiiiiiii3 %iiii<&iiiiiiiiiiiiiiii3&iii:<iiiiiiiiiiiiiiiiiii",
"iiiiiiiiiiiiii3.+2iii<&iiii97iiiittt7ut2$wti:<t99iiiiiiiiiiiiiiii",
"iiiiiiiiiiiiii3O7.wii<&iiw%o@O4ii:-O@72oo@5i:-$@ %iiiiiiiiiiiiiii",
"iiiiiiiiiiiiii3Oi>%ii<&iiO>ii3.wi:+riii3&iii:+rirX5iiiiiiiiiiiiii",
"iiiiiiiiiiiiii3Oiy+2i<&i0 riii%1i:*iiii3&iii:>iii%<iiiiiiiiiiiiii",
"iiiiiiiiiiiiii3Oii7 9<&i7Oiiii>:i::iiii3&iii:<iii%<iiiiiiiiiiiiii",
"iiiiiiiiiiiiii3Oiii>O>&i0.iiii=>i::iiii3&iii:<iii%<iiiiiiiiiiiiii",
"iiiiiiiiiiiiii3Oiiii$.&iyX7iiwO5i::iiii3$iii:<iii%<iiiiiiiiiiiiii",
"iiiiiiiiiiiiii3OiiiirX&ii2.22#;ii::iiii7 -7i:<iii%<iiiiiiiiiiiiii",
"iiiiiiiiiiiiii01iiiii63iiiq>:2iii64iiiiiq>7i67iii37iiiiiiiiiiiiii",
"iiiiiiiiiiiiiiiiiiiiiiiiiiiiiiiiiiiiiiiiiiiiiiiiiiiiiiiiiiiiiiiii",
"iiiiiiiiiiiiiiiiiiiiiiiiiiiiiiiiiiiiiiiiiiiiiiiiiiiiiiiiiiiiiiiii",
"iiiiiiiiiiiiiiiiiiiiiiiiiiiiiiiiiiiiiiiiiiiiiiiiiiiiiiiiiiiiiiiii",
"iiiiiiiiiiiiiiiiiiiiiiiiiiiiiiiiiiiiiiiiiiiiiiiiiiiiiiiiiiiiiiiii",
"iiiiiiiiiiiiiiiiiiiiiiiiiiiiiiiiiiiiiiiiiiiiiiiiiiiiiiiiiiiiiiiii",
"iiiiiiiiiiiiiiiiiiiiiiiiiiiiiiiiiiiiiiiiiiiiiiiiiiiiiiiiiiiiiiiii",
"iiiiiiiiiiiiiiiiiiiiiiiiiiiiiiiiiiiiiiiiiiiiiiiiiiiiiiiiiiiiiiiii",
"iiiiiiiiiiiiiiiiiiiiiiiiiiiiiiiiiiiiiiiiiiiiiiiiiiiiiiiiiiiiiiiii",
"iiiiiiiiiiiiiiiiiiiiiiiiiiiiiiiiiiiiiiiiiiiiiiiiiiiiiiiiiiiiiiiii",
"iiiiiiiiiiiiiiiiiiiiiiiiiiiiiiiiiiiiiiiiiiiiiiiiiiiiiiiiiiiiiiiii",
"iiiiiiiiiiiiiiiiiiiiiiiiiiiiiiiiiiiiiiiiiiiiiiiiiiiiiiiiiiiiiiiii",
"iiiiiiiiiiiiiiiiiiiiiiiiiiiiiiiiiiiiiiiiiiiiiiiiiiiiiiiiiiiiiiiii",
"iiiiiiiiiiiiiiiiiiiiiiiiiiiiiiiiiiiiiiiiiiiiiiiiiiiiiiiiiiiiiiiii",
"iiiiiiiiiiiiiiiiiiiiiiiiiiiiiiiiiiiiiiiiiiiiiiiiiiiiiiiiiiiiiiiii",
"iiiiiiiiiiiiiiiiiiiiiiiiiiiiiiiiiiiiiiiiiiiiiiiiiiiiiiiiiiiiiiiii"
};
