/* XPM */
static char *d9bf13176a7545779ddd951ed82d8a5b1sTSjjzfTJ4OXf2q[] = {
/* columns rows colors chars-per-pixel */
"64 64 26 1 ",
"  c black",
". c #0D0F0E",
"X c #0D100D",
"o c #1A1E1B",
"O c #262E27",
"+ c #272E28",
"@ c #333D35",
"# c #343D35",
"$ c #404D42",
"% c #4D5C4F",
"& c #4D5B50",
"* c #4D5C50",
"= c #5A6B5C",
"- c #677A6A",
"; c #738977",
": c #748977",
"> c #809983",
", c #809884",
"< c #8DA791",
"1 c #8DA891",
"2 c #9AB79E",
"3 c #A7C6AB",
"4 c #A7C6AC",
"5 c #B3D5B9",
"6 c #C0E4C6",
"7 c #CDF4D3",
/* pixels */
"7777777777777777777777777777777777777777777777777777777777777777",
"7777777777777777777777777777777777777777777777777777777777777777",
"7777777777777777777777777777777777777777777777777777777777777777",
"7777777777777777777777777777777777777777777777777777777777777777",
"7777777777777777777777777777777777777777777777777777777777777777",
"7777777777777777777777777777777777777777777777777777777777777777",
"7777777777777777777777777777777777777777777777777777777777777777",
"7777777777777777777777777777777777777777777777777777777777777777",
"7777777777777777777777777777777777777777777777777777777777777777",
"7777777777777777777777777777777777777777777777777777777777777777",
"7777777777777777777777777777777777777777777777777777777777777777",
"7777777777777777777777777777777777777777777777777777777777777777",
"7777777777777777777777777777777777777777777777777777777777777777",
"7777777777777777777777777777777557777777777777777777777777777777",
"7777777777777777777777777777777  7777777777777777777777777777777",
"7777777777777777777777777777777  7777777777777777777777777777777",
"777777777777777777777,@@@@@@@@@  @@@@@@@@@-777777777777777777777",
"777777777777777777777-                    &777777777777777777777",
"7777777777777777777777777777777  7777777777777777777777777777777",
"7777777777777777777777777777777  7777777777777777777777777777777",
"77777777777777777777775--------  --------57777777777777777777777",
"77777777777777777777772                  27777777777777777777777",
"77777777777777777777772 =553,255552-255= 27777777777777777777777",
"77777777777777777777772 -775.@7777= 577- 27777777777777777777777",
"77777777777777777777772 -777- 2775o%777- 27777777777777777777777",
"77777777777777777777772 -7654o<55- 2567- 27777777777777777777777",
"77777777777777777777772 -7*          #7- 27777777777777777777777",
"77777777777777777777772 -72>>>>.O>>>>17- 27777777777777777777777",
"77777777777777777777772 -777777o#777777- 27777777777777777777777",
"77777777777777777777772 -722222.+222226- 27777777777777777777777",
"77777777777777777777772 -5            2- 27777777777777777777777",
"77777777777777777777772 -622222oO222226- 27777777777777777777777",
"77777777777777777777772 -777777o#777777- 27777777777777777777777",
"77777777777777777777772 -777777o#777777- 27777777777777777777777",
"77777777777777777777772 -777777o#774&&&o 27777777777777777777777",
"77777777777777777777774o:777777:,777+oo+-77777777777777777777777",
"7777777777777777777777777777777777777777777777777777777777777777",
"7777777777777777777777777777777777777777777777777777777777777777",
"7777777777777777777777777777777777777777777777777777777777777777",
"7777777777777777312777777777777777777777777657777777777777777777",
"777777777777775@X#Xo5777777777777777777,377,o7777777777777777777",
"77777777777777@$777=@777777777777777777@,77,o7777777777777777777",
"77777777777777o<7776>776-$$,776&7772:7&o@&7,o4&@,777777777777777",
"77777777777777@O5777777O+>:o;75 777,#7>o%>7,.$>:.;77777777777777",
"777777777777775% @-577,o6772.65 777,#77@,77, 577-$77777777777777",
"77777777777777775,# ;7=$7777.35 777,#77@,77,o777,#77777777777777",
"77777777777777777772.6*=7777o25 777,#77@,77,o777,#77777777777777",
"77777777777775&67775 5:@7775 55 677:#77@,77,o777,#77777777777777",
"77777777777777o%576%o76.;76$$76.-62+#77$=67,o777,#77777777777777",
"777777777777775+   #5772oXX#577,X #-#774o 6,o777,#77777777777777",
"7777777777777777656777777557777775777777757777777777777777777777",
"7777777777777777777777777777777777777777777777777777777777777777",
"7777777777777777777777777777777777777777777777777777777777777777",
"7777777777777777777777777777777777777777777777777777777777777777",
"7777777777777777777777777777777777777777777777777777777777777777",
"7777777777777777777777777777777777777777777777777777777777777777",
"7777777777777777777777777777777777777777777777777777777777777777",
"7777777777777777777777777777777777777777777777777777777777777777",
"7777777777777777777777777777777777777777777777777777777777777777",
"7777777777777777777777777777777777777777777777777777777777777777",
"7777777777777777777777777777777777777777777777777777777777777777",
"7777777777777777777777777777777777777777777777777777777777777777",
"7777777777777777777777777777777777777777777777777777777777777777",
"7777777777777777777777777777777777777777777777777777777777777777"
};
