/* XPM */
static char *_7d702e86d1a44b183db5b29a4a2c0c51CpaQ2TbMxA6ehkn[] = {
/* columns rows colors chars-per-pixel */
"65 64 20 1 ",
"  c #332F26",
". c #403B2F",
"X c #403B30",
"o c #4D4739",
"O c #595243",
"+ c #665E4C",
"@ c #736A56",
"# c #80765F",
"$ c #8C8268",
"% c #998E71",
"& c #A6997B",
"* c #A6997C",
"= c #B3A585",
"- c #BFB18E",
"; c #CCBD97",
": c #D9C9A1",
"> c #E5D4AA",
", c #F2E1B3",
"< c #F2E0B4",
"1 c #FFECBD",
/* pixels */
"11111111111111111111111111111111111111111111111111111111111111111",
"11111111111111111111111111111111111111111111111111111111111111111",
"11111111111111111111111111111111111111111111111111111111111111111",
"11111111111111111111111111111111111111111111111111111111111111111",
"11111111111111111111111111111111111111111111111111111111111111111",
"11111111111111111111111111111111111111111111111111111111111111111",
"11111111111111111111111111111111111111111111111111111111111111111",
"11111111111111111111111111111111111111111111111111111111111111111",
"11111111111111111111111111111111111111111111111111111111111111111",
"11111111111111111111111111111111111111111111111111111111111111111",
"11111111111111111111111111111111111111111111111111111111111111111",
"11111111111111111111111111111111111111111111111111111111111111111",
"11111111111111111111111111111111111111111111111111111111111111111",
"11111111111111111111111111111111111111111111111111111111111111111",
"1111111111111111111111111111:;,111;;11111111111111111111111111111",
"1111111111111111111111111111+ >111 o11111111111111111111111111111",
"1111111111111111111111111111+ >111 o11111111111111111111111111111",
"1111111111111111111111111111+ >111 o11111111111111111111111111111",
"1111111111111111111111111111+ >111 o11111:,1111111111111111111111",
"1111111111111111111111111111+ >111 o1111=X+1111111111111111111111",
"1111111111111111111111######o >111 o11,$  $,111111111111111111111",
"1111111111111111111111        >111 o1;o o;11111111111111111111111",
"1111111111111111111111;;;;;;O >111 o$  $,111111111111111111111111",
"1111111111111111111111111111+ >111   +;11111111111111111111111111",
"1111111111111111111111111111+ >111 .-1111111111111111111111111111",
"1111111111111111111111111111+ >111 o11111111111111111111111111111",
"1111111111111111111111111111+ >111 o11111111111111111111111111111",
"1111111111111111111111111111+ >111 o11111111111111111111111111111",
"1111111111111111111111111111+ >111 o11111111111111111111111111111",
"1111111111111111111111111,-+  >111 o111111%:111111111111111111111",
"11111111111111111111111;$X    >111 o111111oo111111111111111111111",
"111111111111111111111=O  X%,+ >111 o111111 +111111111111111111111",
"111111111111111111111; +-,11+ >111Xo11111< @111111111111111111111",
"1111111111111111111111:11111+ >111o ,1111= %111111111111111111111",
"1111111111111111111111111111+ >111+ Xoooo  >111111111111111111111",
"1111111111111111111111111111+ >111>@OooooO&1111111111111111111111",
"1111111111111111111111111111:;11111111111111111111111111111111111",
"11111111111111111111111111111111111111111111111111111111111111111",
"111111111111111;@O+=111111111111111111111111:#1111111111111111111",
"11111111111111=X%;=o%1111111111111111111 ;11; 1111111111111111111",
"11111111111111O=111;O1111:;1111,,111>,1> =>1; 1>;,111111111111111",
"11111111111111o%1111111>oXoo-11#%111+=>o o+1; %oXo:11111111111111",
"11111111111111& #;,1111o%11&.,1#%111+=11 ;11; %11$+11111111111111",
"111111111111111>#o #>1: >111+&1#%111+=11 ;11; 111-o11111111111111",
"111111111111111111:@o1-o1111##1#%111+=11 ;11; 111;o11111111111111",
"11111111111111>1111< >-.1111@$1#$111+=11 ;11; 111;o11111111111111",
"1111111111111< ;111- ,<X;11>o;1$+11> =11 ;11; 111;o11111111111111",
"11111111111111%.#%$X%11&o**O$11; @$Oo=11+o&1; 111;o11111111111111",
"111111111111111-$#$;1111;$#=1111:$$>=:11>%%1>%111>&11111111111111",
"11111111111111111111111111111111111111111111111111111111111111111",
"11111111111111111111111111111111111111111111111111111111111111111",
"11111111111111111111111111111111111111111111111111111111111111111",
"11111111111111111111111111111111111111111111111111111111111111111",
"11111111111111111111111111111111111111111111111111111111111111111",
"11111111111111111111111111111111111111111111111111111111111111111",
"11111111111111111111111111111111111111111111111111111111111111111",
"11111111111111111111111111111111111111111111111111111111111111111",
"11111111111111111111111111111111111111111111111111111111111111111",
"11111111111111111111111111111111111111111111111111111111111111111",
"11111111111111111111111111111111111111111111111111111111111111111",
"11111111111111111111111111111111111111111111111111111111111111111",
"11111111111111111111111111111111111111111111111111111111111111111",
"11111111111111111111111111111111111111111111111111111111111111111",
"11111111111111111111111111111111111111111111111111111111111111111"
};
