/* XPM */
static char *fe78d37bcc104bbbaff9fb2404c7c555Mr81Jq8iSjPSJTx9[] = {
/* columns rows colors chars-per-pixel */
"64 64 20 1 ",
"  c #332827",
". c #403231",
"X c #4D3C3B",
"o c #594644",
"O c #66504E",
"+ c #735A57",
"@ c #735A58",
"# c #806462",
"$ c #8C6E6B",
"% c #997774",
"& c #997875",
"* c #A6827E",
"= c #B38B88",
"- c #B38C88",
"; c #BF9591",
": c #CC9F9B",
"> c #D9A9A5",
", c #E5B3AF",
"< c #F2BDB8",
"1 c #FFC7C2",
/* pixels */
"1111111111111111111111111111111111111111111111111111111111111111",
"1111111111111111111111111111111111111111111111111111111111111111",
"1111111111111111111111111111111111111111111111111111111111111111",
"1111111111111111111111111111111111111111111111111111111111111111",
"1111111111111111111111111111111111111111111111111111111111111111",
"1111111111111111111111111111111111111111111111111111111111111111",
"1111111111111111111111111111111111111111111111111111111111111111",
"1111111111111111111111111111111111111111111111111111111111111111",
"1111111111111111111111111111111111111111111111111111111111111111",
"1111111111111111111111111111111111111111111111111111111111111111",
"1111111111111111111111111111111111111111111111111111111111111111",
"1111111111111111111111111111111111111111111111111111111111111111",
"1111111111111111111111111111111111111111111111111111111111111111",
"1111111111111111111111111111111111111111111111111111111111111111",
"1111111111111111111111111111111111111111111111111111111111111111",
"111111111111111111111<,,,,,,,,,,,,,,,,,,,,<111111111111111111111",
"111111111111111111111#                    &111111111111111111111",
"111111111111111111111=######. ###o @######;111111111111111111111",
"1111111111111111111111111111O 111& :1111111111111111111111111111",
"1111111111111111111111111111O 111& :1111111111111111111111111111",
"1111111111111111111111111111O 111& :1111111111111111111111111111",
"1111111111111111111111*XXXXX. XXX. .XXXXX$1111111111111111111111",
"1111111111111111111111& oOOO. OOOX oOOOO #1111111111111111111111",
"1111111111111111111111& :111O 111& :111, #1111111111111111111111",
"1111111111111111111111& :111O 111& :111, #1111111111111111111111",
"1111111111111111111111& :111.o111& :11<, #1111111111111111111111",
"1111111111111111111111& :11= #111& :11&X #1111111111111111111111",
"1111111111111111111111& :1,X ,111& #==X  #1111111111111111111111",
"1111111111111111111111& ::X %1111:     + #1111111111111111111111",
"1111111111111111111111& %  *111111<:::,, #1111111111111111111111",
"1111111111111111111111& :*>111111111111, #1111111111111111111111",
"1111111111111111111111& :11111111111111, #1111111111111111111111",
"1111111111111111111111& :11111111111111, #1111111111111111111111",
"1111111111111111111111& .XXXXXXXXXXXXXXX #1111111111111111111111",
"1111111111111111111111& XXXXXXXXXXXXXXXX #1111111111111111111111",
"1111111111111111111111& :11111111111111, #1111111111111111111111",
"1111111111111111111111>=,11111111111111<:,1111111111111111111111",
"1111111111111111111111111111111111111111111111111111111111111111",
"111111111111111,#<111*&1111#>11111111111111111111111111111111111",
"1111111111111111.:111X <11, ,1111111111111111X:11111111111111111",
"1111111111111111#$11> .-11=o111>:11111<>:111,X-,1111111111111111",
"1111111111111111*o11*O$$11@$1,O.XX;11>.oXX,,X XO1111111111111111",
"1111111111111111, <1O*:X11X:1O%11=.<1o*11%;11X:11111111111111111",
"11111111111111111X;1.><.,> 1, <111o-1O$<11111X:11111111111111111",
"11111111111111111$$:X11O*=O1: XXXX.&1>X O-111X:11111111111111111",
"11111111111111111:X&#11*#@*1>.,,,,,<111>=X&11X:11111111111111111",
"11111111111111111< o;11>..>1<.:111&<<*<11*O11X;11111111111111111",
"111111111111111111O ,111.X111*.#=OX,1OX*&.=11OX*1111111111111111",
"111111111111111111;=1111;=1111>$#%<11<=##:111,&$1111111111111111",
"1111111111111111111111111111111111111111111111111111111111111111",
"1111111111111111111111111111111111111111111111111111111111111111",
"1111111111111111111111111111111111111111111111111111111111111111",
"1111111111111111111111111111111111111111111111111111111111111111",
"1111111111111111111111111111111111111111111111111111111111111111",
"1111111111111111111111111111111111111111111111111111111111111111",
"1111111111111111111111111111111111111111111111111111111111111111",
"1111111111111111111111111111111111111111111111111111111111111111",
"1111111111111111111111111111111111111111111111111111111111111111",
"1111111111111111111111111111111111111111111111111111111111111111",
"1111111111111111111111111111111111111111111111111111111111111111",
"1111111111111111111111111111111111111111111111111111111111111111",
"1111111111111111111111111111111111111111111111111111111111111111",
"1111111111111111111111111111111111111111111111111111111111111111",
"1111111111111111111111111111111111111111111111111111111111111111"
};
